<svg id="Layer_1" data-name="Layer 1" xmlns="http://www.w3.org/2000/svg" viewBox="0 0 18 17.48"><path d="M13.39.11a.71.71,0,0,1,.38.78c0,.32.08.39.38.38a4.45,4.45,0,0,1,1.31.06,2.3,2.3,0,0,1,1.79,2.18c0,3.9,0,7.79,0,11.69A2.31,2.31,0,0,1,15,17.47c-3.9,0-7.79,0-11.69,0A2.3,2.3,0,0,1,1.05,15.2c0-3.88,0-7.77,0-11.65A2.32,2.32,0,0,1,3.33,1.26c.13,0,.27,0,.41,0a1.76,1.76,0,0,0,.69,0c.22-.12.05-.42.1-.64A.75.75,0,0,1,4.91.11h.41A.85.85,0,0,1,5.66,1c0,.22,0,.3.28.3q3.21,0,6.41,0c.25,0,.32-.08.29-.3A.81.81,0,0,1,13,.11ZM9.11,16.32H14.7c1,0,1.4-.45,1.4-1.42V6.43c0-.92,0-1.84,0-2.76a1.19,1.19,0,0,0-1.26-1.26,4.85,4.85,0,0,1-.66,0c-.36-.05-.43.09-.42.42,0,.49-.19.74-.56.74s-.59-.26-.55-.75-.11-.42-.44-.42c-2,0-4,0-5.92,0-.6,0-.6,0-.63.58A.57.57,0,0,1,4.52,3c0-.19.1-.48,0-.57s-.43,0-.64,0H3.58A1.22,1.22,0,0,0,2.19,3.8V15a1.21,1.21,0,0,0,1.36,1.37Z" style="fill:#010101"/><path d="M8,6.51A.67.67,0,0,1,7.76,7c-.71.7-1.41,1.42-2.12,2.11a.64.64,0,0,1-1,0l-1-1a.55.55,0,0,1-.06-.8.56.56,0,0,1,.84,0l.09.09c.59.58.59.57,1.19,0L6.9,6.08A.62.62,0,0,1,8,6.51Z" style="fill:#080808"/><path d="M9.14,12.25c-.2,0-.41,0-.61,0A.5.5,0,0,1,8,11.68a.51.51,0,0,1,.53-.56H9.77a.51.51,0,0,1,.52.53.52.52,0,0,1-.5.59,4.7,4.7,0,0,1-.65,0Z" style="fill:#090909"/><path d="M5.12,11.12c.2,0,.41,0,.61,0a.53.53,0,0,1,.51.55.51.51,0,0,1-.48.56,7.61,7.61,0,0,1-1.35,0A.49.49,0,0,1,4,11.66a.51.51,0,0,1,.51-.54Z" style="fill:#0a0a0a"/><path d="M13.21,11.12h.61a.53.53,0,0,1,.53.57.51.51,0,0,1-.5.55,11.45,11.45,0,0,1-1.31,0,.51.51,0,0,1-.48-.6.52.52,0,0,1,.53-.52Z" style="fill:#0a0a0a"/><path d="M13.18,8.77h-.57a.52.52,0,0,1-.55-.55.5.5,0,0,1,.51-.57c.42,0,.85,0,1.27,0a.51.51,0,0,1,.51.58.51.51,0,0,1-.52.53c-.21,0-.43,0-.65,0Z" style="fill:#050505"/><path d="M9.18,7.65c.21,0,.41,0,.62,0a.5.5,0,0,1,.48.56.49.49,0,0,1-.49.55,11.45,11.45,0,0,1-1.31,0A.49.49,0,0,1,8,8.23a.5.5,0,0,1,.47-.57,5.45,5.45,0,0,1,.7,0Z" style="fill:#030303"/></svg>